<?xml version="1.0" encoding="UTF-8" standalone="no"?><!DOCTYPE svg PUBLIC "-//W3C//DTD SVG 1.1//EN" "http://www.w3.org/Graphics/SVG/1.1/DTD/svg11.dtd"><svg width="100%" height="100%" viewBox="0 0 532 240" version="1.1" xmlns="http://www.w3.org/2000/svg" xmlns:xlink="http://www.w3.org/1999/xlink" xml:space="preserve" xmlns:serif="http://www.serif.com/" style="fill-rule:evenodd;clip-rule:evenodd;stroke-linejoin:round;stroke-miterlimit:2;"><g id="FALODI-LOGO-NEGRO-OFICIAL" serif:id="FALODI LOGO NEGRO OFICIAL"><path d="M0.558,239.703l-0,-202.423l123.927,-36.318c0,0 -13.844,30.875 -28.164,36.318c-16.415,6.239 -70.323,19.836 -70.323,19.836l0,19.926l42.159,0c0,0 -5.934,24.796 -14.082,26.252c-7.026,1.256 -28.077,0.347 -28.077,0.347c0,0 1.033,66.659 -0.087,89.393c-0.871,17.682 -25.353,46.669 -25.353,46.669Z" style="fill:#030605;"/><path d="M82.239,239.703c0,0 -2.347,-109.299 0,-136.409c0.856,-9.893 5.732,-20.877 14.082,-26.252c14.068,-9.055 70.323,-28.077 70.323,-28.077l0,190.739c0,0 -27.143,-32.204 -28.077,-46.669c-0.725,-11.233 -0.087,-35.618 -0.087,-35.618l-28.077,0c0,0 0.725,24.385 0,35.618c-0.934,14.465 -28.164,46.669 -28.164,46.669Zm28.164,-108.613l28.077,0l0.087,-41.878c0,0 -27.513,5.696 -28.164,14.082c-0.542,6.98 0,27.796 0,27.796Z" style="fill:#030605;"/><path d="M194.809,0.962c0,0 26.935,21.121 27.642,36.318c1.487,32.012 1.487,122.017 0,155.754c-0.796,18.063 -27.642,46.669 -27.642,46.669l0,-238.741Z" style="fill:#030605;"/><path d="M250.614,48.965c0,0 56.256,17.11 70.323,26.165c8.826,5.681 13.187,17.706 14.082,28.164c2.347,27.429 0,136.409 0,136.409c0,0 -56.343,-15.556 -70.41,-23.335c-7.937,-4.389 -13.239,-14.296 -13.995,-23.335c-2.332,-27.901 0,-144.069 0,-144.069Zm28.077,40.247c0,0 -1.574,84.918 0,103.822c0.823,9.884 28.164,9.602 28.164,9.602c0,0 1.574,-80.439 0,-99.343c-0.871,-10.46 -28.164,-14.082 -28.164,-14.082Z" style="fill:#030605;"/><path d="M312.885,0.962c0,0 85.635,33.157 106.539,42.516c7.086,3.173 14.275,8.044 18.882,13.638c4.607,5.594 8.293,12.685 8.76,19.926c1.46,22.653 2.26,92.771 0,115.992c-0.871,8.954 -5.698,18.961 -13.56,23.335c-13.98,7.778 -70.323,23.335 -70.323,23.335c0,0 -2.332,-107.387 0,-134.498c0.899,-10.445 6.968,-21.456 13.995,-28.164c7.026,-6.708 28.164,-12.083 28.164,-12.083c0,0 -54.914,-20.132 -70.323,-27.678c-12.732,-6.235 -22.134,-36.318 -22.134,-36.318Zm78.375,104.244c-1.574,18.585 0,97.43 0,97.43c0,0 27.327,0.282 28.164,-9.601c1.574,-18.585 0,-103.822 0,-103.822c0,0 -27.278,5.535 -28.164,15.994Z" style="fill:#030605;"/><path d="M493.05,32.949c0,0 -11.337,4.969 -17.864,6.384c-7.488,1.676 -28.164,-7.441 -28.164,-7.441l29.299,-9.424l-28.733,-19.454c0,0 21.255,-4.62 27.642,0c7.361,4.737 17.883,12.812 17.883,12.812l38.358,-12.812c0,0 -10.012,13.451 -14.082,17.099c-2.828,2.535 -10.126,5.157 -10.126,5.157c0,0 7.529,4.582 10.126,6.621c5.62,4.413 14.082,27.276 14.082,27.276l-38.421,-26.22Z" style="fill:#030605;"/><path d="M492.974,46.197c4.687,0.26 10.212,7.123 10.597,12.597c1.722,24.473 1.014,103.809 -0.265,134.24c-0.939,18.145 -28.164,46.669 -28.164,46.669l0,-182.587c0,0 13.049,-11.184 17.832,-10.919Z" style="fill:#030605;"/></g></svg>
